<svg xmlns="http://www.w3.org/2000/svg" viewBox="0 0 128 128" role="img" aria-label="AI code generation platform logo">
  <defs>
    <linearGradient id="bg" x1="18" y1="12" x2="110" y2="118" gradientUnits="userSpaceOnUse">
      <stop offset="0" stop-color="#0F172A"/>
      <stop offset="0.48" stop-color="#123B8C"/>
      <stop offset="1" stop-color="#0EA5E9"/>
    </linearGradient>
    <linearGradient id="core" x1="41" y1="33" x2="89" y2="95" gradientUnits="userSpaceOnUse">
      <stop offset="0" stop-color="#67E8F9"/>
      <stop offset="0.52" stop-color="#22C55E"/>
      <stop offset="1" stop-color="#A3E635"/>
    </linearGradient>
    <linearGradient id="accent" x1="29" y1="29" x2="99" y2="99" gradientUnits="userSpaceOnUse">
      <stop offset="0" stop-color="#93C5FD"/>
      <stop offset="1" stop-color="#FFFFFF"/>
    </linearGradient>
    <filter id="glow" x="-25%" y="-25%" width="150%" height="150%">
      <feGaussianBlur stdDeviation="3.8" result="blur"/>
      <feColorMatrix in="blur" type="matrix" values="0 0 0 0 0.125 0 0 0 0 0.82 0 0 0 0 0.92 0 0 0 0.75 0"/>
      <feBlend in="SourceGraphic" mode="screen"/>
    </filter>
  </defs>
  <rect width="128" height="128" rx="30" fill="url(#bg)"/>
  <path d="M19 83V45C19 34 28 25 39 25h50c11 0 20 9 20 20v38c0 11-9 20-20 20H39c-11 0-20-9-20-20Z" fill="#FFFFFF" opacity=".08"/>
  <path d="M37 73 25 64l12-9" fill="none" stroke="url(#accent)" stroke-width="7" stroke-linecap="round" stroke-linejoin="round"/>
  <path d="m91 55 12 9-12 9" fill="none" stroke="url(#accent)" stroke-width="7" stroke-linecap="round" stroke-linejoin="round"/>
  <path d="M56 84 72 44" fill="none" stroke="#BAE6FD" stroke-width="7" stroke-linecap="round"/>
  <g filter="url(#glow)">
    <rect x="43" y="39" width="42" height="50" rx="14" fill="url(#core)"/>
    <path d="M53 54h22M53 65h16M53 76h22" fill="none" stroke="#06212B" stroke-width="5" stroke-linecap="round"/>
  </g>
  <path d="M91 25h5v5h-5zM29 98h6v6h-6zM98 94h4v4h-4z" fill="#A7F3D0"/>
  <path d="M101 34 105 42l8 4-8 4-4 8-4-8-8-4 8-4 4-8Z" fill="#F8FAFC"/>
  <circle cx="33" cy="32" r="4" fill="#38BDF8"/>
</svg>
